<?xml version="1.0" encoding="utf-8"?>
<!-- Generator: Adobe Illustrator 26.2.1, SVG Export Plug-In . SVG Version: 6.00 Build 0)  -->
<svg version="1.1" id="Layer_1" xmlns="http://www.w3.org/2000/svg" xmlns:xlink="http://www.w3.org/1999/xlink" x="0px" y="0px"
	 viewBox="0 0 227.7 91.4" style="enable-background:new 0 0 227.7 91.4;" xml:space="preserve">
<style type="text/css">
	.st0{fill:#D63894;}
</style>
<g>
	<path class="st0" d="M22.4,58.4c-0.1,0-0.2,0-0.4,0c-1.4,0-2.5,1.1-2.5,2.5c0,0.1,0,0.1,0,0.2c0.1,1.3,1.2,2.3,2.5,2.3
		c1.4,0,2.5-1.1,2.5-2.5C24.5,59.6,23.6,58.6,22.4,58.4"/>
	<path class="st0" d="M46.4,58.4c-0.1,0-0.2,0-0.4,0c-1.4,0-2.5,1.1-2.5,2.5c0,1.4,1.1,2.5,2.5,2.5c1,0,1.9-0.6,2.3-1.5
		c0.1-0.3,0.2-0.6,0.2-0.9C48.6,59.6,47.6,58.6,46.4,58.4"/>
	<path class="st0" d="M39.3,68.5c-1.4,1.4-3.3,2.2-5.3,2.2c-2,0-3.9-0.8-5.3-2.2c-0.8-0.8-2-0.8-2.8,0c-0.8,0.8-0.8,2,0,2.8
		c2.2,2.1,5,3.3,8.1,3.3c3,0,5.9-1.2,8.1-3.3c0.8-0.8,0.8-2,0-2.8C41.4,67.8,40.1,67.8,39.3,68.5"/>
	<path class="st0" d="M66.6,55.7c0-14.1-7.7-26.2-20.1-31.8c0.1-0.1,0.2-0.2,0.3-0.3c2.7-3.6,5.4-8,6.2-9.9c0-0.1,0-0.1,0.1-0.2
		c0.4-1,0.6-2.1,0.6-3.2c0-4.9-4-8.9-8.9-8.9c-1.2,0-2.6,0.1-3.8,0.8c-3.3,1.8-5.7,6.2-7.2,13c0,0,0,0,0,0l0,0
		c-0.2,0.7-0.3,1.4-0.4,2.1c0,0.2,0,0.3,0,0.5c-0.2,1.2-0.4,2.4-0.5,3.4C15,22,1.5,36.9,1.5,55.7c0,0.2,0,0.4,0,0.5
		c0,0.2,0,0.3,0,0.5c0,18,14.6,32.6,32.6,32.6c18,0,32.6-14.6,32.6-32.6c0-0.2,0-0.4,0-0.6C66.6,55.9,66.6,55.8,66.6,55.7
		 M36.8,20.1c0.1-0.6,0.2-1.3,0.3-1.9c0-0.1,0-0.2,0-0.3c2.9,0.6,5.3,1.5,7.1,2.7c-0.2,0.2-0.3,0.4-0.5,0.6c-0.3,0.4-0.7,0.9-1,1.3
		c-0.4-0.1-0.7-0.2-1.1-0.4c-1.6-0.5-3.3-0.9-5-1.1C36.7,20.7,36.7,20.4,36.8,20.1 M62.6,59.1C61.3,73.8,49,85.3,34,85.3
		c-15.5,0-28.2-12.4-28.6-27.8c0,0,0-0.1,0-0.1c0.1-1.3,0.2-2.7,0.5-3.9l0-0.1c0-0.1,0-0.2,0.1-0.3c0.9-3.9,4.1-6.7,7.4-6.8
		c7.4-0.3,9.4,5.9,17.9,7.3c11.3,1.8,15.3-6.1,23-6c4.3,0,8.3,4.8,8.3,10.2c0,0.3,0,0.6,0,1C62.5,58.8,62.6,59,62.6,59.1"/>
	<g>
		<path class="st0" d="M141.6,54.8c0.9,0,1.8,0.2,2.6,0.5c0.8,0.3,1.5,0.8,2,1.3c0.6,0.6,1,1.2,1.3,2c0.3,0.7,0.5,1.5,0.5,2.4
			c0,0.9-0.2,1.6-0.5,2.4c-0.3,0.7-0.8,1.4-1.3,2c-0.6,0.6-1.3,1-2,1.3c-1.6,0.7-3.6,0.7-5.2,0c-0.8-0.3-1.5-0.8-2-1.4
			c-0.6-0.6-1-1.2-1.3-2c-0.3-0.8-0.5-1.5-0.5-2.4c0-0.8,0.2-1.6,0.5-2.4c0.3-0.8,0.8-1.4,1.3-2c0.6-0.6,1.3-1,2-1.3
			C139.8,55,140.6,54.8,141.6,54.8 M149.5,53c-1-1-2.2-1.7-3.6-2.2c-2.7-1-5.9-1-8.6,0c-1.3,0.5-2.6,1.3-3.6,2.2
			c-1,1-1.9,2.1-2.5,3.5c-0.6,1.4-0.9,2.9-0.9,4.5c0,1.7,0.3,3.2,0.9,4.5c0.6,1.3,1.4,2.5,2.5,3.5c1,0.9,2.2,1.7,3.6,2.2
			c1.4,0.5,2.8,0.8,4.3,0.8c1.5,0,2.9-0.3,4.3-0.8c1.4-0.5,2.6-1.3,3.6-2.2c1-1,1.9-2.1,2.5-3.5c0.6-1.4,0.9-2.9,0.9-4.5
			c0-1.6-0.3-3.2-0.9-4.5C151.4,55.1,150.5,54,149.5,53"/>
		<path class="st0" d="M176.8,50.4h-0.2c-0.6,0-1.1,0.2-1.6,0.7c-0.5,0.4-0.7,1-0.7,1.6v14.4h-4V52.7c0-0.6-0.2-1.2-0.7-1.6
			c-0.4-0.4-1-0.7-1.6-0.7h-0.3c-0.6,0-1.1,0.2-1.6,0.7c-0.5,0.4-0.7,1-0.7,1.6v14.4h-4V52.7c0-0.6-0.2-1.2-0.7-1.6
			c-0.4-0.4-1-0.7-1.6-0.7H159c-0.6,0-1.1,0.2-1.6,0.7c-0.5,0.4-0.7,1-0.7,1.6v16.9c0,0.6,0.2,1.2,0.7,1.6c0.4,0.4,1,0.7,1.6,0.7
			h0.2c0,0,0.1,0,0.1,0c0,0,0.1,0,0.1,0h8.3h0.3h8.3c0,0,0.1,0,0.1,0c0,0,0.1,0,0.1,0h0.2c0.6,0,1.2-0.2,1.6-0.7
			c0.4-0.4,0.7-1,0.7-1.6V52.7c0-0.6-0.2-1.2-0.7-1.6C178,50.6,177.5,50.4,176.8,50.4"/>
		<path class="st0" d="M196,58.3l3.5-3.8c0.4-0.4,0.7-1,0.7-1.7c0-0.6-0.2-1.2-0.7-1.7c-0.7-0.7-1.7-1-2.7-0.5
			c-0.3,0.1-0.5,0.3-0.8,0.6l-7.2,7.7v-6.2c0-0.7-0.3-1.2-0.7-1.7c-0.4-0.4-1-0.6-1.6-0.6h-0.2c-0.6,0-1.1,0.2-1.6,0.6
			c-0.5,0.4-0.7,1-0.7,1.7v16.9c0,0.7,0.2,1.2,0.7,1.7c0.4,0.4,1,0.6,1.6,0.6h0.2c0.6,0,1.1-0.2,1.6-0.6c0.5-0.4,0.7-1,0.7-1.7v-3.7
			l3.7-4l4.9,8.7c0.2,0.4,0.5,0.7,0.9,0.9c0.4,0.2,0.8,0.3,1.2,0.3c0.6,0,1.2-0.3,1.7-0.8c0.5-0.5,0.7-1.1,0.7-1.7
			c0-0.4-0.1-0.8-0.3-1.2L196,58.3z"/>
		<path class="st0" d="M214.5,54.7c0.9,0,1.7,0.1,2.3,0.3c0.6,0.2,1,0.5,1.3,0.8c0.3,0.3,0.5,0.7,0.6,1.1c0.1,0.5,0.2,1.1,0.2,1.7
			V59h-8.8v-0.4c0-0.6,0.1-1.2,0.2-1.7c0.1-0.4,0.3-0.8,0.6-1.1c0.3-0.3,0.7-0.6,1.3-0.8C212.8,54.8,213.5,54.7,214.5,54.7
			 M223.3,55.7c-0.2-1.1-0.7-2-1.4-2.9c-0.7-0.9-1.7-1.6-2.9-2.1c-1.2-0.5-2.8-0.8-4.6-0.8c-1.9,0-3.4,0.3-4.6,0.8
			c-1.2,0.5-2.2,1.2-2.9,2.1c-0.7,0.8-1.1,1.8-1.4,2.9c-0.2,1-0.3,2-0.3,2.9v11c0,0.7,0.2,1.3,0.7,1.7c0.4,0.4,1,0.6,1.6,0.6h0.2
			c0.6,0,1.1-0.2,1.6-0.6c0.5-0.4,0.7-1,0.7-1.7v-5.7h8.8v5.7c0,0.7,0.2,1.2,0.7,1.7c0.4,0.4,1,0.6,1.6,0.6h0.2
			c0.6,0,1.1-0.2,1.6-0.6c0.5-0.4,0.7-1,0.7-1.7v-11C223.7,57.6,223.5,56.6,223.3,55.7"/>
		<path class="st0" d="M91.1,55.2h7.5v3.6h-7.5c-0.8,0-1.3-0.2-1.7-0.5c-0.3-0.3-0.5-0.8-0.5-1.4c0-0.4,0.1-0.7,0.2-0.9
			c0.1-0.2,0.2-0.4,0.4-0.5c0.2-0.1,0.4-0.2,0.7-0.3C90.5,55.2,90.8,55.2,91.1,55.2 M101,50.4h-9.9c-0.9,0-1.7,0.1-2.5,0.3
			c-0.9,0.2-1.6,0.6-2.3,1.1c-0.7,0.5-1.2,1.2-1.6,2.1c-0.4,0.8-0.6,1.8-0.6,3c0,1.2,0.2,2.2,0.6,3c0.4,0.8,0.8,1.5,1.4,2
			c0.5,0.5,1.1,0.9,1.8,1.2c0.1,0,0.2,0.1,0.2,0.1l-2.5,5.2c-0.2,0.3-0.3,0.7-0.3,1.1c0,0.7,0.3,1.2,0.7,1.7c0.8,0.8,2,0.9,3,0.3
			c0.4-0.3,0.7-0.6,0.9-1l3.3-6.9h5.4v6c0,0.6,0.2,1.1,0.7,1.6c0.4,0.4,1,0.7,1.6,0.7h0.2c0.6,0,1.1-0.2,1.6-0.7
			c0.5-0.5,0.7-1,0.7-1.6V52.8c0-0.6-0.3-1.2-0.7-1.7C102.2,50.6,101.6,50.4,101,50.4"/>
		<path class="st0" d="M124.1,50.4H124h-0.1h-13.7h-0.2h0c0,0,0,0,0,0c-0.1,0-0.3,0-0.4,0c0,0-0.1,0-0.1,0c-0.1,0-0.2,0.1-0.3,0.1
			c0,0,0,0,0,0c-0.3,0.1-0.5,0.3-0.7,0.5c-0.5,0.4-0.7,1-0.7,1.6v0.2v16.7c0,0.6,0.2,1.2,0.7,1.6c0.5,0.4,1,0.7,1.6,0.7h0.2
			c0.6,0,1.2-0.2,1.6-0.7c0.4-0.4,0.7-1,0.7-1.6V55.2h9.2v14.4c0,0.6,0.2,1.2,0.7,1.6c0.5,0.4,1,0.7,1.6,0.7h0.3
			c0.6,0,1.2-0.2,1.6-0.7c0.4-0.4,0.6-1,0.6-1.6V52.7c0-0.6-0.2-1.2-0.6-1.6C125.3,50.6,124.8,50.4,124.1,50.4"/>
	</g>
</g>
</svg>
